# xmcd
#
# Track frame offsets:
# 150
# 18356
# 40353
# 57748
# 77036
# 98209
# 120590
# 142350
# 162549
# 182380
# 202816
# 223734
# 243173
# 261330
# 280702
# 297931
# 314472
# 334978
#
# Disc length: 4682 seconds
#
# Revision: 0
# Processed by: cddbd v1.5PL3 Copyright (c) Steve Scherf et al.
# Submitted via: Axialis_AX_CDPlayer 2.6
#
DISCID=16124812
DTITLE=Toni Braxton - Ultimate
DYEAR=1900
DGENRE=
TTITLE0=Give U My Heart
TTITLE1=Love Shoulda Brought You Home
TTITLE2=Another Sad Love Song
TTITLE3=Breathe Again
TTITLE4=Seven Whole Days
TTITLE5=You Mean The World To Me
TTITLE6=How Many Ways
TTITLE7=You're Makin' Me High
TTITLE8=Let It Flow
TTITLE9=Un-Break My Heart
TTITLE10=I Love Me Some Him
TTITLE11=I Don't Want To
TTITLE12=He Wasn't Man Enough
TTITLE13=Just Be A Man About It
TTITLE14=Hit The Freeway
TTITLE15=Whatchu Need
TTITLE16=The Little Things
TTITLE17=Un-Break My Heart
EXTD=
EXTT0=
EXTT1=
EXTT2=
EXTT3=
EXTT4=
EXTT5=
EXTT6=
EXTT7=
EXTT8=
EXTT9=
EXTT10=
EXTT11=
EXTT12=
EXTT13=
EXTT14=
EXTT15=
EXTT16=
EXTT17=
PLAYORDER=
